<svg width="512" height="512" xmlns="http://www.w3.org/2000/svg">
 <g>
  <title>background</title>
  <rect fill="none" id="canvas_background" height="514" width="514" y="-1" x="-1"/>
  <g display="none" overflow="visible" y="0" x="0" height="100%" width="100%" id="canvasGrid">
   <rect fill="url(#gridpattern)" stroke-width="0" y="0" x="0" height="100%" width="100%"/>
  </g>
 </g>
 <g>
  <title>Layer 1</title>
  <g stroke="null" id="svg_28">
   <ellipse stroke="#bbbbbb" ry="185.499994" rx="185.499994" id="svg_27" cy="196.68323" cx="255.999982" stroke-width="1.5" fill="#bbbbbb"/>
   <g stroke="null" transform="matrix(0.9284511070642412,0,0,0.9284511070642412,-3447.775897846497,-2146.9974100982017) " id="svg_5">
    <g stroke="null" id="svg_6">
     <path fill="#191919" id="svg_7" d="m4141.14482,2668.10438c-1.334,-8.92 -13.593,-45.537 -30.213,-76.243c-18.198,-33.619 -40.184,-59.836 -65.348,-77.922c-32.62,-23.445 -77.122,-42.58 -105.772,-14.718c-2.402,-2.353 -3.715,-4.701 -3.98,-7.099c-1.619,-14.582 30.979,-38.432 49.149,-62.907c2.47,-3.325 1.775,-8.023 -1.551,-10.493c-3.326,-2.471 -8.023,-1.775 -10.493,1.551c-19.761,26.613 -54.706,49.253 -52.015,73.503c0.769,6.926 4.551,13.187 11.247,18.671c-1.639,7.117 -2.879,19.895 3.627,34.419c10.287,22.964 35.356,41.064 74.509,53.795c12.671,4.119 26.005,10.296 39.629,18.355c3.564,2.11 8.164,0.931 10.274,-2.637c2.109,-3.564 0.929,-8.164 -2.637,-10.274c-14.57,-8.62 -28.912,-15.251 -42.628,-19.711c-34.234,-11.132 -56.814,-26.799 -65.298,-45.309c-6.473,-14.122 -2.958,-25.655 -2.08,-28.082c1.843,-2.626 5.499,-5.937 10.013,-8.281c36.915,-19.203 96.095,29.714 120.957,63.841c0.172,0.236 0.342,0.473 0.513,0.71c18.254,25.254 33.079,56.542 42.949,86.546c-9.745,-9.315 -23.106,-21.172 -38.765,-32.682c-3.338,-2.453 -8.031,-1.736 -10.485,1.602c-2.453,3.337 -1.736,8.031 1.602,10.485c14.805,10.881 27.454,22.069 36.765,30.941c-61.534,-23.762 -81.122,-16.414 -131.645,-34.594c-44.16,-15.877 -78.13,-42.685 -86.482,-88.672c-0.739,-4.075 -4.642,-6.782 -8.72,-6.039c-4.076,0.74 -6.779,4.644 -6.039,8.72c9.077,49.983 44.929,80.847 92.656,98.8l12.961,40.891c2.674,8.297 9.56,14.085 17.643,15.738l5.273,21.5l-19.952,114.352c-12.772,0 -21.967,0 -35.141,0c-4.143,0 -7.5,3.357 -7.5,7.5c0,4.143 3.357,7.5 7.5,7.5l28.875,0c21.982,0 40.609,0 62.752,0c4.143,0 7.5,-3.357 7.5,-7.5c0,-4.143 -3.357,-7.5 -7.5,-7.5l-12.384,0l19.772,-113.321c0.473,-2.718 -0.185,-2.555 -5.822,-26.391c8.077,-5.758 11.899,-16.299 8.695,-26.231l-2.263,-7.019c21.286,3.861 44.454,12.056 64.313,20.2c14.793,5.86 27.862,-0.241 25.539,-15.995zm-136.716,18.193c-7.552,-1.587 -5.759,-6.465 -15.924,-35.969c3.32,0.996 6.722,1.955 10.192,2.872c0.033,0.102 10.391,32.235 10.545,32.674c-0.053,0.021 -0.109,0.039 -0.163,0.059c-1.532,-0.376 -3.106,-0.275 -4.65,0.364zm11.253,150.565c-1.869,0 -10.701,0 -13.646,0c20.492,-118.735 20.377,-113.507 19.668,-116.397l-5.248,-21.401c0.776,-0.383 1.521,-0.819 2.247,-1.285c3.68,2.343 7.724,3.539 11.771,3.686l5.162,21.046l-19.954,114.351zm8.963,-153.693c-1.757,-2.289 -1.214,-2.894 -8.873,-25.893c6.062,1.306 12.763,2.598 18.811,3.686l4.695,14.561c2.869,8.896 -8.847,15.134 -14.633,7.646z"/>
    </g>
   </g>
   <g stroke="null" transform="matrix(0.9284511070642412,0,0,0.9284511070642412,-3447.775897846497,-2146.9974100982017) " id="svg_8">
    <g stroke="null" id="svg_9">
     <path fill="#191919" id="svg_10" d="m3963.39382,2349.56438c-21.58,-14.644 -61.449,-12.657 -78.01,5.62c-50.342,15.53 -78.531,17.361 -76.187,31.859c1.429,8.835 13.324,8.835 22.01,8.835l66.944,0c14.611,6.96 33.949,7.866 49.646,3.463c-0.031,7.788 -23.353,26.178 -39.061,41.885c-31.249,31.251 -32.482,66.994 -32.527,70.421c-0.024,0.511 -0.038,1.015 -0.052,1.519l-0.025,0.854c-0.153,4.246 3.247,7.771 7.5,7.771c4.017,0 7.344,-3.183 7.49,-7.229l0.03,-0.995c0.025,-1.005 0.052,-1.323 0.055,-1.677c0.002,-0.321 0.543,-32.461 28.137,-60.055c21.116,-21.12 44.163,-36.653 43.437,-53.316c-0.162,-3.712 -1.649,-9.131 -7.815,-13.865c-2.062,-1.583 -4.797,-1.986 -7.227,-1.064c-5.928,2.247 -12.889,3.436 -20.13,3.436c-10.029,0 -18.691,-2.322 -24.321,-5.3c-22.393,-11.662 -0.737,-26.862 24.321,-26.862c19.175,0 27.274,7.485 29.52,8.354c6.47,2.502 27.58,11.95 27.58,28.48c0,1.448 -0.12,2.945 -0.367,4.576c-0.619,4.096 2.198,7.918 6.294,8.539c4.092,0.615 7.917,-2.198 8.539,-6.294c0.36,-2.382 0.535,-4.613 0.535,-6.82c-0.001,-24.732 -24.726,-37.51 -36.316,-42.135zm-113.629,31.313l29.143,-8.265c0.206,2.582 1.016,5.601 2.366,8.265l-31.509,0z"/>
    </g>
   </g>
   <g stroke="null" transform="matrix(0.9284511070642412,0,0,0.9284511070642412,-3447.775897846497,-2146.9974100982017) " id="svg_11"/>
   <g stroke="null" transform="matrix(0.9284511070642412,0,0,0.9284511070642412,-3447.775897846497,-2146.9974100982017) " id="svg_12"/>
   <g stroke="null" transform="matrix(0.9284511070642412,0,0,0.9284511070642412,-3447.775897846497,-2146.9974100982017) " id="svg_13"/>
   <g stroke="null" transform="matrix(0.9284511070642412,0,0,0.9284511070642412,-3447.775897846497,-2146.9974100982017) " id="svg_14"/>
   <g stroke="null" transform="matrix(0.9284511070642412,0,0,0.9284511070642412,-3447.775897846497,-2146.9974100982017) " id="svg_15"/>
   <g stroke="null" transform="matrix(0.9284511070642412,0,0,0.9284511070642412,-3447.775897846497,-2146.9974100982017) " id="svg_16"/>
   <g stroke="null" transform="matrix(0.9284511070642412,0,0,0.9284511070642412,-3447.775897846497,-2146.9974100982017) " id="svg_17"/>
   <g stroke="null" transform="matrix(0.9284511070642412,0,0,0.9284511070642412,-3447.775897846497,-2146.9974100982017) " id="svg_18"/>
   <g stroke="null" transform="matrix(0.9284511070642412,0,0,0.9284511070642412,-3447.775897846497,-2146.9974100982017) " id="svg_19"/>
   <g stroke="null" transform="matrix(0.9284511070642412,0,0,0.9284511070642412,-3447.775897846497,-2146.9974100982017) " id="svg_20"/>
   <g stroke="null" transform="matrix(0.9284511070642412,0,0,0.9284511070642412,-3447.775897846497,-2146.9974100982017) " id="svg_21"/>
   <g stroke="null" transform="matrix(0.9284511070642412,0,0,0.9284511070642412,-3447.775897846497,-2146.9974100982017) " id="svg_22"/>
   <g stroke="null" transform="matrix(0.9284511070642412,0,0,0.9284511070642412,-3447.775897846497,-2146.9974100982017) " id="svg_23"/>
   <g stroke="null" transform="matrix(0.9284511070642412,0,0,0.9284511070642412,-3447.775897846497,-2146.9974100982017) " id="svg_24"/>
   <g stroke="null" transform="matrix(0.9284511070642412,0,0,0.9284511070642412,-3447.775897846497,-2146.9974100982017) " id="svg_25"/>
  </g>
 </g>
</svg>